<?xml version="1.0" encoding="UTF-8" standalone="no"?>
<!-- Created with Inkscape (http://www.inkscape.org/) -->
<svg
   xmlns:dc="http://purl.org/dc/elements/1.1/"
   xmlns:cc="http://creativecommons.org/ns#"
   xmlns:rdf="http://www.w3.org/1999/02/22-rdf-syntax-ns#"
   xmlns:svg="http://www.w3.org/2000/svg"
   xmlns="http://www.w3.org/2000/svg"
   xmlns:sodipodi="http://sodipodi.sourceforge.net/DTD/sodipodi-0.dtd"
   xmlns:inkscape="http://www.inkscape.org/namespaces/inkscape"
   width="210mm"
   height="297mm"
   id="svg2455"
   sodipodi:version="0.32"
   inkscape:version="0.46"
   sodipodi:docname="roundframe.svg"
   inkscape:output_extension="org.inkscape.output.svg.inkscape">
  <defs
     id="defs3">
    <inkscape:perspective
       sodipodi:type="inkscape:persp3d"
       inkscape:vp_x="0 : 526.18109 : 1"
       inkscape:vp_y="0 : 1000 : 0"
       inkscape:vp_z="744.09448 : 526.18109 : 1"
       inkscape:persp3d-origin="372.04724 : 350.78739 : 1"
       id="perspective2461" />
  </defs>
  <sodipodi:namedview
     inkscape:document-units="mm"
     id="base"
     pagecolor="#ffffff"
     bordercolor="#666666"
     borderopacity="1.0"
     inkscape:pageopacity="0.0"
     inkscape:pageshadow="2"
     inkscape:zoom="0.35"
     inkscape:cx="350"
     inkscape:cy="520"
     inkscape:current-layer="layer1"
     showgrid="false"
     inkscape:window-width="640"
     inkscape:window-height="701"
     inkscape:window-x="345"
     inkscape:window-y="22" />
  <metadata
     id="metadata4">
    <rdf:RDF>
      <cc:Work
         rdf:about="">
        <dc:format>image/svg+xml</dc:format>
        <dc:type
           rdf:resource="http://purl.org/dc/dcmitype/StillImage" />
      </cc:Work>
    </rdf:RDF>
  </metadata>
  <g
     inkscape:label="Layer 1"
     inkscape:groupmode="layer"
     id="layer1">
    <path
       style="fill:#008080"
       d="M 355.56695,696.93891 C 345.64455,696.62999 337.09455,696.11791 336.56695,695.80094 C 336.03935,695.48398 332.40065,694.94448 328.48095,694.60205 C 321.24395,693.96982 310.46435,692.36016 295.10775,689.61864 C 267.52035,684.69363 223.08135,667.61178 200.10775,653.10176 C 196.53275,650.8438 192.70775,648.59683 191.60775,648.10849 C 189.04545,646.97099 173.82765,636.71384 168.60775,632.60596 C 166.40775,630.87466 162.65675,628.14232 160.27225,626.5341 C 157.88765,624.92588 153.16265,621.13247 149.77225,618.1043 C 139.44075,608.87689 106.88125,576.09787 102.28355,570.29558 C 93.289449,558.94492 70.107749,521.34024 70.107749,518.10089 C 70.107749,517.49572 69.770249,516.99542 69.357749,516.98911 C 68.945249,516.9828 67.708249,515.0703 66.608849,512.73911 C 65.509449,510.40792 62.921949,505.40076 60.858849,501.61209 C 58.795749,497.82342 57.107749,493.98605 57.107749,493.0846 C 57.107749,492.18315 56.515849,490.55796 55.792449,489.47309 C 55.069049,488.38821 53.897549,485.47558 53.189149,483.00058 C 52.480749,480.52558 51.548349,478.05058 51.117049,477.50058 C 50.362949,476.53879 45.998849,463.91528 42.819949,453.50058 C 41.980549,450.75058 40.766749,445.80058 40.122549,442.50058 C 39.478249,439.20058 38.122949,432.90058 37.110649,428.50058 C 36.098249,424.10058 34.979249,417.57558 34.623949,414.00058 C 34.268649,410.42558 33.234949,402.55058 32.326949,396.50058 C 30.262849,382.74792 30.113349,332.06259 32.108649,322.50058 C 32.797249,319.20058 34.192349,311.32558 35.208949,305.00058 C 37.871649,288.43316 38.872349,284.0218 43.261949,269.50058 C 50.900849,244.22957 53.486249,236.29894 55.698949,231.34945 C 56.473749,229.61633 57.107749,227.89445 57.107749,227.52306 C 57.107749,226.92006 72.479549,195.70643 76.018149,189.12416 C 80.264249,181.22557 94.661649,160.71133 105.89215,146.55773 C 124.41025,123.21981 166.27585,86.933069 191.60775,72.264209 C 201.58355,66.487549 221.39545,56.708389 229.60775,53.507459 C 233.45775,52.006819 238.40775,49.990739 240.60775,49.027279 C 244.21445,47.447729 264.07125,40.400339 271.60775,38.024999 C 295.90135,30.368149 335.21415,24.344489 358.60775,24.694509 C 389.13375,25.151239 411.57455,27.271619 431.10775,31.544829 C 434.68275,32.326919 440.95525,33.661119 445.04675,34.509709 C 452.74435,36.106229 455.36875,36.869959 470.69675,41.974019 C 475.69575,43.638629 480.26355,45.000579 480.84745,45.000579 C 481.43135,45.000579 485.80685,46.818199 490.57075,49.039739 C 495.33465,51.261279 501.34185,53.923529 503.92005,54.955839 C 524.21795,63.083109 563.56025,87.453129 575.24275,99.135619 C 576.18525,100.07808 577.97745,101.3957 579.22555,102.06365 C 586.85205,106.14525 621.59265,142.60448 633.38305,158.90042 C 640.42795,168.63746 649.05735,181.78443 650.40435,184.83262 C 651.05275,186.3 652.13635,187.95058 652.81215,188.50058 C 653.48805,189.05058 655.66875,192.65058 657.65815,196.50058 C 659.64745,200.35058 661.81885,204.17558 662.48335,205.00058 C 663.84155,206.68692 666.38015,211.96552 671.14005,223.00058 C 672.91925,227.12558 674.98985,231.38821 675.74135,232.47309 C 676.49285,233.55796 677.10775,235.21974 677.10775,236.16593 C 677.10775,237.11211 677.96925,239.37448 679.02235,241.19342 C 680.07535,243.01236 681.50415,246.52558 682.19735,249.00058 C 682.89065,251.47558 683.76815,253.95058 684.14725,254.50058 C 685.31215,256.19022 690.83655,275.96373 692.94785,286.00058 C 696.41135,302.46546 697.06305,306.25088 698.15045,316.21975 C 698.73355,321.56529 699.44495,326.96529 699.73135,328.21975 C 700.01775,329.47421 700.42385,340.85058 700.63385,353.50058 C 700.92015,370.74963 700.62855,379.12601 699.46755,387.00058 C 697.33665,401.4529 697.39295,401.04722 695.65245,414.50058 C 693.74585,429.23829 693.71625,429.41139 691.20085,440.50058 C 687.91785,454.97434 682.07485,473.98791 678.55495,481.65171 C 677.75895,483.38483 677.10775,485.1002 677.10775,485.46363 C 677.10775,485.82707 675.92855,488.68406 674.48745,491.81251 C 673.04625,494.94095 670.73895,499.97558 669.36005,503.00058 C 663.10415,516.72502 655.98085,529.73399 648.55255,541.00058 C 645.83295,545.12558 643.38275,548.72558 643.10775,549.00058 C 642.52165,549.58664 640.11375,553.0357 634.03205,562.00058 C 629.39165,568.84082 629.35395,568.89132 623.56905,576.00058 C 614.56085,587.07128 610.23485,591.96551 603.65425,598.53135 C 594.76865,607.39709 585.07135,616.00058 583.96415,616.00058 C 583.49765,616.00058 579.97745,618.88079 576.14155,622.40105 C 570.25665,627.80163 557.45705,636.88651 542.10775,646.55758 C 537.92845,649.19078 515.45305,661.31677 505.60775,666.25014 C 490.10965,674.01601 459.77105,684.32883 440.10775,688.51512 C 439.28275,688.69076 436.35775,689.3569 433.60775,689.99542 C 430.85775,690.63394 427.70775,691.28213 426.60775,691.43584 C 425.50775,691.58955 423.03275,691.97402 421.10775,692.2902 C 417.02655,692.96055 403.22685,694.66913 394.60775,695.57123 C 378.72545,697.2335 372.28085,697.45927 355.56695,696.93891 z M 369.88515,690.44388 C 371.10755,689.58769 372.10775,688.24014 372.10775,687.44932 C 372.10775,686.33465 372.95055,686.16296 375.85775,686.68547 C 380.94675,687.60015 385.03985,687.30182 386.73805,685.89244 C 387.90985,684.91988 387.40395,684.02297 383.75905,680.61076 C 378.98075,676.1376 374.01755,669.21649 368.28385,659.03101 C 365.13485,653.43701 364.56335,652.85907 364.29855,655.00058 C 364.12845,656.37558 363.11595,659.40818 362.04855,661.73968 C 360.98105,664.07119 360.10775,666.39889 360.10775,666.91234 C 360.10775,668.71966 350.88295,677.95531 345.52655,681.51066 C 342.54615,683.48892 340.10775,685.48095 340.10775,685.9374 C 340.10775,687.93891 350.82705,688.75636 354.10045,687.00448 C 355.58815,686.20827 356.56285,686.60961 358.95775,689.00448 C 362.33625,692.38298 366.36005,692.91301 369.88515,690.44388 z M 327.20115,682.14018 C 340.39845,677.59901 351.73855,667.38665 357.33795,655.00058 C 360.52385,647.95317 361.89355,637.72644 360.70925,629.82902 C 360.06485,625.53205 354.38165,615.52832 350.43685,611.74745 C 339.71235,601.46852 329.75115,597.11862 315.14585,596.33646 C 299.39855,595.49314 285.28245,599.01066 260.10775,610.05104 C 250.29095,614.35619 248.43475,614.98078 231.60775,619.64114 C 223.11465,621.99334 219.64865,622.41748 208.60775,622.45564 C 199.42245,622.48739 194.58065,622.07417 192.10775,621.04745 C 185.06795,618.12469 177.59245,611.46508 175.09285,605.88964 C 174.50385,604.57566 173.37275,602.37558 172.57955,601.00058 C 170.62355,597.61036 170.71135,587.63817 172.73455,583.37451 C 173.62935,581.48893 175.49005,579.05842 176.86945,577.97338 C 186.09265,570.71835 194.36355,586.77492 185.62965,594.98 C 184.24255,596.28306 183.10775,598.08972 183.10775,598.99479 C 183.10775,601.59621 188.30435,606.73622 193.16255,608.94014 C 203.48995,613.62508 210.10775,610.09767 210.10775,599.90805 C 210.10775,594.61676 206.48195,582.29175 203.99535,579.1306 C 200.40355,574.56437 202.24705,573.41268 206.43865,577.60423 C 209.75935,580.92491 214.59815,593.50206 215.95295,602.33392 C 217.18375,610.35734 217.81065,611.29541 222.97725,612.84333 C 225.11845,613.48488 227.42895,614.68271 228.11155,615.50518 C 230.06305,617.85659 231.24575,617.22988 236.94835,610.82286 C 241.93295,605.22238 242.25745,604.54516 241.81725,600.66152 C 241.55785,598.37301 240.61975,594.83381 239.73255,592.79665 C 237.12365,586.80651 226.98525,575.10311 219.60775,569.56542 C 217.62385,568.07628 217.62515,568.06393 219.76795,568.03238 C 221.87185,568.00141 230.80695,574.37223 234.39615,578.46248 C 235.37985,579.58343 238.61115,583.89011 241.57685,588.03286 C 248.79535,598.11623 249.94875,599.02547 256.36055,599.68723 C 262.63715,600.33503 267.86035,598.96445 273.42725,595.2089 C 276.72405,592.98484 280.89895,587.40591 279.93145,586.51743 C 279.75335,586.35392 277.58275,585.52492 275.10775,584.67521 C 261.63345,580.04924 252.60315,575.52945 240.78655,567.4969 C 235.93485,564.19893 230.25755,560.60058 228.17025,559.50058 C 226.08295,558.40058 223.75135,556.97541 222.98895,556.33354 C 220.80095,554.4915 211.04595,550.78984 206.10775,549.92768 C 196.83135,548.30815 177.88315,553.81463 175.14835,558.92471 C 174.52075,560.09725 173.61105,560.81166 173.12665,560.51229 C 171.36585,559.42403 164.06485,568.16403 160.60615,575.50058 C 157.24775,582.62431 156.51365,587.37581 157.23895,597.2948 C 158.00015,607.70462 159.77025,612.30342 165.97825,620.00058 C 173.86415,629.77801 180.51105,633.93227 196.17255,638.87179 C 203.73005,641.25537 216.97385,641.33597 227.01295,639.05947 C 244.03475,635.19954 255.77165,630.78664 264.60775,624.92428 C 275.87975,617.44575 293.02685,611.1335 306.22625,609.60346 C 311.62325,608.97784 325.57695,611.6965 330.91675,614.41404 C 343.61835,620.8781 349.26385,633.84947 344.05695,644.60548 C 341.72895,649.41448 335.81165,653.04897 331.61605,652.24692 C 328.18385,651.59082 324.10775,646.52945 324.10775,642.92385 C 324.10775,639.11224 327.28825,636.00058 331.18435,636.00058 C 334.12885,636.00058 334.24745,635.83956 333.94605,632.25058 C 333.34895,625.13957 325.98525,619.57152 317.47425,619.79544 C 311.12075,619.96261 308.24265,621.6365 305.29685,626.8778 C 302.70745,631.48507 302.41865,638.41559 304.59865,643.63306 C 306.95255,649.26678 313.68115,656.61275 318.11105,658.38523 C 322.68665,660.21601 323.61035,662.29193 319.29925,661.05552 C 308.05075,657.82949 298.19125,644.66457 298.13145,632.79105 C 298.09825,626.20268 294.67045,623.00615 287.61795,622.98693 C 284.86235,622.97942 281.66005,622.71889 280.50185,622.40798 C 278.80405,621.95223 277.49595,623.03992 273.75185,628.02072 C 269.84995,633.2114 269.10775,634.90893 269.10775,638.6425 C 269.10775,642.55982 269.67045,643.69177 273.85775,648.19736 C 279.63955,654.4187 291.63925,663.46349 297.62305,666.11039 C 303.72095,668.80778 304.51595,670.4528 299.38925,669.76517 C 290.91605,668.62868 282.21665,663.29307 271.73825,652.80601 C 266.31005,647.37333 260.48945,642.21512 258.80365,641.34333 C 251.01735,637.31688 232.73345,642.8851 228.13185,650.68418 C 225.18745,655.67457 225.48695,657.00058 229.55845,657.00058 C 236.22915,657.00058 243.71795,659.25856 255.10775,664.70402 C 278.74765,676.0063 293.31295,681.7674 302.10775,683.2942 C 309.11415,684.51056 322.04005,683.91611 327.20115,682.14018 z M 431.35235,680.26622 C 432.04285,679.72276 434.21465,679.03202 436.17875,678.73125 C 438.14285,678.43048 443.31785,676.52613 447.67875,674.49937 C 452.03965,672.47261 458.30775,669.56194 461.60775,668.03121 C 477.45475,660.68047 486.37405,658.00058 494.99195,658.00058 C 498.90565,658.00058 502.10775,657.76113 502.10775,657.46846 C 502.10775,653.25133 491.83735,641.00058 488.30185,641.00058 C 487.31505,641.00058 486.04575,640.53862 485.48115,639.974 C 484.91655,639.40939 482.10565,638.66924 479.23485,638.32923 C 470.36065,637.27821 467.40905,638.92952 455.65095,651.52329 C 447.37435,660.38812 443.87725,663.37189 438.89915,665.81589 C 432.60445,668.90633 427.10775,670.70186 427.10775,669.66763 C 427.10775,669.36526 429.92025,667.62897 433.35775,665.80922 C 440.77755,661.88129 453.03405,650.18775 455.82615,644.37276 C 458.32015,639.17864 457.92185,635.4195 454.11175,628.19146 C 452.46195,625.06148 451.11105,621.93808 451.10985,621.25058 C 451.10705,619.63603 451.16075,619.63036 442.76295,622.1325 C 438.82755,623.30506 434.60995,625.1697 433.39035,626.27614 C 431.02685,628.42048 428.67665,634.71754 427.56695,641.87924 C 426.75085,647.14558 424.03015,652.16787 419.19515,657.333 C 414.83695,661.98884 411.20485,664.00058 407.15735,664.00058 C 403.01115,664.00058 403.31335,662.41784 407.73845,660.95744 C 411.92165,659.57684 418.18885,654.23426 420.99805,649.65394 C 422.06185,647.91959 423.25445,644.25058 423.64835,641.50058 C 424.04235,638.75058 424.49205,635.78535 424.64785,634.91119 C 425.13405,632.1821 421.40715,625.24045 418.44145,623.35164 C 416.88295,622.35896 415.31945,621.13956 414.96725,620.64184 C 414.17045,619.51613 407.96715,620.62308 403.71855,622.64912 C 400.33455,624.26283 396.10775,629.56937 396.10775,632.20405 C 396.10775,633.07289 397.27145,634.07585 398.69385,634.43284 C 405.77675,636.21054 408.63175,644.86999 403.47285,648.928 C 400.16375,651.5309 393.47465,651.65877 390.50455,649.17591 C 387.19005,646.40521 386.10775,643.55488 386.10775,637.59712 C 386.10775,627.88748 391.18125,621.20568 403.05935,615.27218 C 408.30415,612.65222 409.34635,612.50111 422.10775,612.51026 C 435.88575,612.52014 439.21695,613.19348 451.31805,618.41442 C 453.12735,619.19504 456.40775,620.6055 458.60775,621.54877 C 460.80775,622.49204 464.37975,624.10458 466.54555,625.13219 C 468.71135,626.15981 470.82865,627.00058 471.25065,627.00058 C 471.67265,627.00058 475.07565,628.41315 478.81285,630.13963 C 482.54995,631.8661 487.40775,634.08821 489.60775,635.07765 C 507.91975,643.31339 537.98355,643.14911 551.88605,634.73734 C 567.63765,625.20675 574.72915,613.50892 575.82915,595.2417 C 576.50205,584.06806 571.97435,573.68517 562.29905,564.21447 C 555.30785,557.37119 549.58235,554.55594 539.10775,552.81123 C 523.98875,550.29295 516.34325,551.60809 502.11655,559.17422 C 496.88675,561.95562 490.18465,566.0919 487.22305,568.36595 C 469.73405,581.79498 461.99245,586.00058 454.76135,586.00058 C 451.75575,586.00058 445.99685,588.89599 448.85775,588.96878 C 449.54525,588.98627 450.10975,589.56308 450.11235,590.25058 C 450.11885,592.00654 455.65445,597.71485 459.05725,599.47449 C 463.75205,601.90226 470.47905,603.04126 474.05895,602.01455 C 477.77885,600.94772 480.49285,598.26002 485.98115,590.20824 C 492.27225,580.97868 505.41595,570.15163 513.99855,567.12918 C 516.81195,566.13839 519.41245,565.02913 519.77745,564.66416 C 520.14245,564.29919 521.04105,564.00058 521.77435,564.00058 C 524.70885,564.00058 522.75175,565.70808 515.72805,569.27555 C 499.15975,577.69096 482.84395,599.3705 487.60745,606.6406 C 488.40755,607.86157 490.42945,609.66826 492.10065,610.65546 C 493.77185,611.64267 495.69455,613.72651 496.37345,615.28621 C 497.38185,617.60318 498.06515,618.02105 500.10775,617.57008 C 501.48275,617.2665 504.75735,616.57352 507.38465,616.03013 C 510.01195,615.48674 513.00885,614.58866 514.04455,614.0344 C 516.09075,612.93931 517.25475,607.99627 516.99615,601.50058 C 516.80105,596.60113 518.76445,589.67774 521.67535,585.00058 C 523.92575,581.3846 533.72145,572.00058 535.24565,572.00058 C 536.90045,572.00058 536.06845,573.27563 530.46365,579.32956 C 521.48475,589.02779 519.22835,596.36191 522.64865,604.73034 C 524.77515,609.9331 527.88405,611.91856 534.32605,612.18813 C 538.58205,612.36623 540.39675,611.93095 542.93585,610.12297 C 545.89655,608.01478 550.10775,601.50577 550.10775,599.03782 C 550.10775,598.46447 548.30775,596.36918 546.10775,594.38162 C 543.00345,591.57708 542.10775,590.04036 542.10775,587.51908 C 542.10775,579.45737 550.41715,576.21983 556.91325,581.75058 C 560.54935,584.84641 563.50565,593.90382 562.58525,599.12831 C 560.37195,611.6914 547.76205,622.52443 532.42845,625.0357 C 517.91465,627.4127 498.72695,625.03574 487.93115,619.5234 C 486.10325,618.59007 482.07975,617.00337 478.98995,615.99738 C 475.90025,614.9914 471.17525,613.07624 468.48995,611.74147 C 463.94705,609.48329 449.24055,603.81313 441.04855,601.16129 C 429.88225,597.54662 409.13555,597.26173 399.60775,600.59222 C 385.70645,605.45143 375.81975,617.88807 372.57795,634.59328 C 371.33795,640.98308 371.38075,642.42064 373.00985,649.09924 C 376.93645,665.19741 385.07695,675.15118 398.37555,680.11524 C 402.85715,681.78809 405.50775,682.00989 416.85235,681.66131 C 424.13695,681.43747 430.66195,680.80968 431.35235,680.26622 z M 370.94745,614.15026 C 375.09605,610.27487 374.16465,606.24216 368.40955,603.1621 C 364.82855,601.24565 359.09485,604.48292 359.12245,608.40557 C 359.15515,613.05547 362.06735,616.09872 367.25195,616.9009 C 367.60625,616.95572 369.26925,615.71794 370.94745,614.15026 z M 587.38005,604.20152 C 589.70525,602.11204 593.44975,599.60047 595.70115,598.62026 C 598.67625,597.32495 600.24625,595.81407 601.44825,593.08985 C 602.35775,591.02833 604.27685,588.71285 605.71275,587.94434 C 607.14875,587.17582 609.67075,584.58918 611.31705,582.19624 L 614.31055,577.84544 L 606.45915,578.52491 C 600.99225,578.99802 595.79825,578.71788 589.35725,577.60248 C 577.93715,575.62487 578.75395,575.57113 579.50555,578.25058 C 580.93455,583.34552 581.32985,597.79752 580.13875,601.40639 C 577.69875,608.79988 580.89145,610.03229 587.38005,604.20152 z M 151.35325,593.14182 C 150.85565,580.87239 150.95015,580.02452 153.41445,574.64182 C 154.83485,571.53914 155.83425,569.00058 155.63525,569.00058 C 155.43635,569.00058 153.22895,569.87697 150.73015,570.9481 C 143.61825,573.99662 136.92455,574.8348 127.40035,573.86943 C 122.65875,573.38882 118.59505,573.17991 118.36975,573.40516 C 117.70605,574.06886 120.76975,579.28216 123.54225,582.20694 C 124.95325,583.69543 126.10775,585.58898 126.10775,586.41483 C 126.10775,588.78207 133.34395,595.77241 136.63045,596.58004 C 139.51655,597.28924 144.10775,601.21208 144.10775,602.96877 C 144.10775,603.8144 148.48925,605.76479 150.74125,605.92163 C 151.55645,605.9784 151.72835,602.38853 151.35325,593.14182 z M 401.60775,592.45853 C 421.46685,589.12703 433.37565,585.67213 453.10775,577.51762 C 474.76805,568.56626 492.78195,558.80655 503.17055,550.39423 C 514.52675,541.19844 530.18155,527.03792 534.36575,522.17671 C 536.57945,519.60484 538.69275,517.27558 539.06185,517.00058 C 539.60645,516.59481 551.41435,502.35135 556.52505,495.93527 C 563.07495,487.71239 575.67195,463.92641 581.11685,449.50058 C 582.36235,446.20058 584.18095,441.47558 585.15815,439.00058 C 586.13535,436.52558 587.25745,432.70058 587.65165,430.50058 C 588.04595,428.30058 588.77145,425.99041 589.26405,425.36687 C 589.75655,424.74333 590.79855,420.91833 591.57945,416.86687 C 592.36035,412.81541 593.68735,406.5544 594.52825,402.95351 C 596.09235,396.25638 596.47595,392.44892 597.69725,371.50058 C 598.64685,355.21399 598.63875,354.54535 597.29185,337.827 C 595.63235,317.22738 590.42455,295.72342 582.68225,277.50058 C 577.87145,266.17768 568.98855,248.19145 566.25085,244.23002 C 563.27005,239.91676 556.10775,228.10589 556.10775,227.50362 C 556.10775,225.52548 537.90425,203.90395 527.10775,193.05833 C 519.03335,184.94729 500.21345,169.91713 495.36595,167.70849 C 494.12395,167.14257 493.10775,166.30178 493.10775,165.84006 C 493.10775,165.37835 492.62765,165.00058 492.04095,165.00058 C 491.45425,165.00058 489.54175,163.91429 487.79095,162.58659 C 484.70735,160.24814 466.74335,150.9806 458.60775,147.53105 C 440.44785,139.83117 415.06345,132.48756 398.60775,130.17323 C 356.49575,124.25064 314.11085,129.35927 278.23855,144.68128 C 242.68325,159.86785 221.53035,173.83819 197.05005,198.30179 C 182.68115,212.66091 166.74385,233.77533 161.45355,245.4617 C 160.69695,247.13308 159.65115,249.17558 159.12965,250.00058 C 157.12625,253.16999 148.10735,272.95759 148.10155,274.19669 C 148.09815,274.91383 147.47885,276.68219 146.72525,278.12638 C 144.97585,281.47922 139.44345,298.96605 138.06485,305.50058 C 137.48465,308.25058 136.60365,312.30058 136.10705,314.50058 C 133.19345,327.40871 130.89675,351.02036 131.43805,362.50058 C 131.74925,369.10058 132.21775,375.62558 132.47915,377.00058 C 132.74055,378.37558 133.24865,382.65058 133.60815,386.50058 C 134.52455,396.31296 138.92805,419.683 141.20845,426.83648 C 147.29795,445.93846 153.90115,460.80719 164.33305,478.90666 C 180.33575,506.67184 191.60585,520.39565 212.79965,537.92569 C 225.15545,548.14552 223.26285,546.6981 232.90585,553.30214 C 258.91895,571.11735 292.75235,585.19704 321.10775,590.00707 C 325.23275,590.70681 331.10165,591.82986 334.14975,592.50275 C 337.19785,593.17563 344.16375,593.81637 349.62965,593.92662 C 355.09545,594.03686 359.80155,594.37197 360.08765,594.67129 C 361.03895,595.66677 392.46775,593.99181 401.60775,592.45853 z M 609.49165,571.81912 C 611.75545,571.16932 614.80215,569.81932 616.26205,568.81912 C 617.72195,567.81892 619.36255,567.00058 619.90785,567.00058 C 620.45315,567.00058 624.01505,563.9156 627.82315,560.14507 C 633.77865,554.24835 636.61365,550.15642 641.21045,540.82249 C 641.70395,539.82044 642.53795,538.13829 643.06385,537.08439 C 644.95105,533.30221 646.34155,521.63619 645.79865,514.13926 C 644.29175,493.32943 643.17155,489.87283 627.86825,458.81444 C 615.24995,433.20522 614.96895,432.37602 614.50505,419.37222 C 614.21175,411.14906 614.48795,407.3348 615.56305,404.76167 C 616.36325,402.84646 617.24045,400.05271 617.51235,398.55334 C 617.99485,395.89241 618.48775,395.08303 622.60775,390.18659 C 628.49845,383.18553 639.66625,380.92728 648.49905,384.95108 C 653.87355,387.39943 654.84385,388.58844 655.23555,393.20592 C 655.59565,397.45102 652.21965,403.00058 649.27715,403.00058 C 645.99785,403.00058 642.17585,400.52258 640.40845,397.25058 C 638.46415,393.65108 636.96825,393.32526 631.97165,395.41295 C 627.98165,397.08009 624.10775,404.06598 624.10775,409.59405 C 624.10775,414.00195 628.04365,419.43401 632.31695,420.92368 C 642.51065,424.47723 656.83735,418.28974 664.41525,407.06091 C 665.32085,405.7191 666.36295,404.92245 666.73105,405.29058 C 667.63755,406.1971 662.73705,413.45446 658.80015,417.03564 C 654.64915,420.8116 651.32125,422.37619 641.26565,425.27924 C 630.71275,428.3259 629.04095,429.96784 628.50405,437.81303 C 628.10845,443.59486 628.24285,444.02889 631.34825,446.99983 C 636.14615,451.58987 641.57405,454.16242 644.85605,453.40176 C 653.04975,451.50267 665.39205,439.87907 670.65215,429.10777 C 672.27765,425.77901 674.17025,423.04313 674.85775,423.02803 C 676.53125,422.99128 676.60545,422.75665 672.46335,430.59988 C 667.06555,440.82103 664.09885,444.77913 656.23735,452.2487 C 646.38135,461.61339 644.09505,465.50921 643.90005,473.27125 C 643.65165,483.1633 650.23775,495.03029 657.06235,496.98757 C 660.73155,498.0399 660.58575,498.29329 662.04945,488.32347 C 663.18655,480.57907 666.43455,471.86331 672.60425,460.00058 C 676.73605,452.05639 680.58555,443.4656 682.23835,438.50058 C 682.78765,436.85058 683.64335,434.74251 684.14005,433.81598 C 687.64635,427.27435 687.73135,402.9861 684.27295,395.84193 C 683.08205,393.38189 682.10775,390.93047 682.10775,390.39434 C 682.10775,389.8582 679.07025,386.1926 675.35775,382.24856 C 669.92945,376.48176 667.04115,374.35029 660.60775,371.36343 C 653.88655,368.24303 651.56865,367.65747 646.10775,367.70048 C 629.54265,367.83094 614.28365,376.99941 607.98555,390.60643 C 604.36965,398.41861 603.06855,404.08712 602.40455,414.92146 C 601.51665,429.40869 604.81585,443.08252 613.76365,462.00058 C 615.71475,466.12558 618.34675,472.20058 619.61255,475.50058 C 620.87845,478.80058 622.71225,483.30058 623.68775,485.50058 C 624.66325,487.70058 625.55765,489.95058 625.67545,490.50058 C 625.79325,491.05058 626.63685,494.35499 627.55015,497.8437 C 629.68025,505.9803 629.55595,525.29955 627.33095,531.9242 C 625.35825,537.79765 618.38875,548.46299 613.45325,553.16114 C 602.25455,563.82122 582.10775,559.50614 582.10775,546.44751 C 582.10775,540.5316 582.80375,539.19632 587.00435,537.05332 C 593.76525,533.60415 599.10775,536.74284 599.10775,544.16407 C 599.10775,546.20923 599.52805,548.14233 600.04175,548.45984 C 600.55555,548.77735 602.78235,548.31435 604.99015,547.43094 C 611.71795,544.73902 616.39935,536.67183 615.51165,529.30006 C 614.74825,522.96063 614.20795,522.19671 608.51945,519.4136 C 604.00485,517.20479 602.17015,516.83303 598.13995,517.31035 C 592.81245,517.94132 586.19795,520.91037 583.00375,524.10457 C 581.89215,525.21613 580.48435,525.95947 579.87525,525.75644 C 577.97745,525.12384 590.01645,516.10532 594.42395,514.85788 C 596.72505,514.20662 601.75775,513.74738 605.60775,513.83733 C 616.93935,514.1021 618.37955,513.02919 619.48325,503.50058 C 619.73815,501.30058 620.26035,498.26308 620.64375,496.75058 C 621.14945,494.75585 620.96555,493.99472 619.97425,493.97923 C 619.22265,493.96749 617.38185,492.22428 615.88355,490.10545 C 613.12865,486.20941 607.92485,483.00058 604.36165,483.00058 C 601.08835,483.00058 590.38135,490.63312 581.27235,499.45984 C 576.51295,504.07176 572.44925,507.67545 572.24185,507.46804 C 572.03445,507.26063 573.01265,505.1321 574.41575,502.73799 C 577.48355,497.50313 588.53915,486.55087 596.05255,481.30335 C 599.04725,479.21183 602.31775,476.09522 603.32045,474.37756 C 605.64415,470.39689 606.27775,461.53617 604.58985,456.62631 C 603.37525,453.09334 595.17055,444.00058 593.19715,444.00058 C 592.02205,444.00058 591.10775,446.56453 591.10775,449.85994 C 591.10775,452.54634 586.70945,461.94243 583.03915,467.0968 C 581.97685,468.58869 581.10775,470.08425 581.10775,470.42026 C 581.10775,470.75628 578.92795,474.06182 576.26385,477.76589 C 573.59965,481.46997 570.56715,486.07558 569.52485,488.00058 C 568.48265,489.92558 567.09625,492.17558 566.44405,493.00058 C 560.86695,500.05547 555.34815,518.51592 556.35695,526.74183 C 557.34695,534.81452 560.29395,545.66881 562.88815,550.79745 C 567.51285,559.94001 577.44235,568.64711 586.50675,571.50835 C 591.77605,573.17165 604.19475,573.33955 609.49165,571.81912 z M 149.28565,563.11632 C 157.05785,559.25307 166.15785,550.59325 169.32955,544.04196 C 172.29755,537.91146 173.39485,531.99113 173.41495,522.00058 C 173.43605,511.47404 172.30565,506.66876 168.26245,500.09771 C 166.52735,497.27776 165.10775,494.78412 165.10775,494.55627 C 165.10775,494.32843 163.30775,491.43206 161.10775,488.11989 C 158.90775,484.80773 157.10775,481.79078 157.10775,481.41556 C 157.10775,481.04034 154.20435,476.38596 150.65575,471.0725 C 147.10715,465.75903 142.94655,458.16916 141.40985,454.20611 C 139.85325,450.19171 138.01665,447.00058 137.26275,447.00058 C 136.51845,447.00058 133.94915,449.07597 131.55305,451.61257 C 128.13715,455.22892 127.05995,457.22581 126.56345,460.86257 C 126.21525,463.41347 125.79185,466.42028 125.62255,467.54437 C 124.95085,472.00649 127.62225,475.40157 134.97435,479.42954 C 142.85745,483.74848 153.48145,492.89416 155.78395,497.34351 C 156.59315,498.90712 157.06725,500.37439 156.83755,500.6041 C 156.60785,500.83382 153.31595,498.06691 149.52225,494.45542 C 138.75015,484.20054 126.00665,478.93504 118.94425,481.82087 C 115.85755,483.08216 108.82015,491.94209 109.84825,493.27248 C 110.37025,493.94794 111.35155,496.52558 112.02885,499.00058 C 113.73555,505.237 116.17765,506.74223 125.16505,507.09728 C 132.37185,507.38199 134.11045,507.77557 140.70315,510.6147 C 145.80085,512.81002 151.48925,518.57942 150.63755,520.69065 C 149.95205,522.38979 149.85925,522.37816 149.12055,520.50058 C 146.77945,514.55019 128.84995,508.2471 121.84285,510.91117 C 118.97785,512.00044 114.29535,519.2347 113.14025,524.35625 C 112.18875,528.57497 116.15465,538.66056 119.84685,541.41199 C 121.25765,542.46326 124.59255,543.53292 127.25775,543.78902 L 132.10355,544.25464 L 131.51005,538.37761 C 130.99165,533.24379 131.19145,532.21071 133.09035,530.2084 C 136.03995,527.09828 142.20055,527.63888 145.89355,531.33189 C 152.68795,538.12626 145.55335,549.75215 133.81635,551.01191 C 125.44385,551.91055 119.80325,549.72317 113.40755,543.09755 C 107.12515,536.58932 104.39705,530.61541 103.03565,520.38504 C 100.88015,504.18696 102.72025,495.68165 113.19365,473.43486 C 114.24635,471.19871 115.10775,468.91595 115.10775,468.36207 C 115.10775,467.80818 116.39805,464.68776 117.97505,461.42779 C 127.13185,442.49964 129.10635,437.35683 131.70395,425.66989 C 133.11485,419.3221 133.23575,416.95497 132.34235,413.16989 C 131.73625,410.60177 130.95225,406.7449 130.60025,404.59907 C 130.24825,402.45324 128.58875,396.90738 126.91255,392.27495 C 121.30675,376.78243 110.44245,367.97727 94.777349,366.23035 C 73.625049,363.87153 61.477949,371.20486 50.585049,392.90974 C 48.672549,396.72058 47.107749,400.7 47.107749,401.75289 C 47.107749,402.80579 46.804449,403.9705 46.433849,404.34115 C 45.625849,405.1491 45.329049,408.14427 45.117949,417.61834 C 44.883849,428.12908 47.383949,436.72508 55.554349,453.50058 C 63.950149,470.73894 67.663349,480.60036 70.529849,493.27261 C 71.058449,495.60966 71.449849,495.88783 73.024049,495.04536 C 75.758149,493.58212 82.678249,486.83257 83.928849,484.4093 C 85.744549,480.89127 88.077749,473.61822 88.093149,471.42872 C 88.121249,467.4295 85.047149,460.43753 81.524549,456.48849 C 66.055749,439.14717 62.602349,434.52905 61.562349,429.79394 C 61.227649,428.2702 60.538449,426.7668 60.030749,426.45303 C 58.824349,425.70741 58.832249,422.00058 60.040349,422.00058 C 60.553249,422.00058 61.280749,423.01308 61.657049,424.25058 C 63.735449,431.08604 76.758849,447.4938 83.780649,452.12346 C 87.614849,454.65143 90.088449,454.47776 94.163449,451.39451 C 96.057749,449.96117 99.070249,448.15513 100.85775,447.38109 L 104.10775,445.97374 L 104.10775,438.45198 C 104.10775,428.40215 102.85895,426.60681 94.042549,423.98116 C 84.313449,421.08371 75.612849,416.51877 73.103849,412.99521 C 69.700749,408.21598 71.208449,407.67278 75.782149,412.03022 C 80.457749,416.48464 88.713849,421.00058 92.181949,421.00058 C 97.666249,421.00058 104.51315,416.93595 106.95855,412.22848 C 108.23005,409.78086 106.85145,401.01757 104.67695,397.72471 C 101.53395,392.96543 94.107749,388.88956 94.107749,391.92385 C 94.107749,392.43166 92.942749,394.23166 91.518849,395.92385 C 87.668549,400.49963 83.047849,400.2591 80.140449,395.33157 C 77.581149,390.99374 77.997649,388.27451 81.888549,383.91981 C 84.211949,381.31944 85.545749,380.77121 90.681349,380.30553 C 97.734749,379.66594 100.62155,380.82188 106.69825,386.71914 C 112.35635,392.21013 116.61785,403.90849 116.45425,413.50058 C 116.26325,424.70273 112.98725,436.00856 105.43455,451.53165 C 101.67975,459.24874 97.299549,469.59874 95.700649,474.53165 C 94.101749,479.46456 92.408249,484.40058 91.937449,485.50058 C 90.531749,488.78435 86.124149,511.21474 86.115649,515.12791 C 86.103949,520.47509 89.049849,532.71078 91.863349,539.00058 C 96.584849,549.55598 97.143149,550.5313 101.11495,555.16266 C 108.08525,563.29054 119.36575,567.03643 135.60775,566.61659 C 141.30165,566.46941 143.85365,565.81632 149.28565,563.11632 z M 69.307749,405.80058 C 67.896549,404.3894 67.739449,403.00058 68.991049,403.00058 C 69.476949,403.00058 70.109849,403.90058 70.397449,405.00058 C 71.007849,407.33484 70.912249,407.40507 69.307749,405.80058 z M 544.52975,542.4357 C 548.74585,538.21958 544.30325,530.00058 537.80815,530.00058 C 531.92665,530.00058 529.12075,535.238 531.91975,540.99166 C 534.46345,546.22044 540.09955,546.86587 544.52975,542.4357 z M 191.74745,539.88456 C 192.65935,539.1278 193.09585,537.32618 192.90825,535.09327 C 192.67545,532.32163 191.98405,531.2173 189.84165,530.1954 C 183.08615,526.97315 176.88505,534.78208 181.84605,540.264 C 183.74975,542.36752 188.99805,542.1664 191.74745,539.88456 z M 48.455349,380.43477 C 52.828949,374.13518 59.392249,368.61703 68.707349,363.40773 C 74.361349,360.24581 76.116149,358.00058 72.933349,358.00058 C 72.352349,358.00058 68.510849,356.42421 64.396749,354.49753 C 56.618849,350.85515 45.072049,340.68836 43.213949,335.84639 L 42.313649,333.50058 L 41.124849,336.50058 C 40.470949,338.15058 39.916749,341.97558 39.893349,345.00058 C 39.869849,348.02558 39.505049,350.95058 39.082449,351.50058 C 38.659949,352.05058 37.755549,354.38298 37.072749,356.68368 C 35.948249,360.47246 36.038449,361.21809 38.029949,364.59343 C 39.764249,367.53272 40.102549,369.25107 39.631149,372.72658 C 39.170149,376.12596 39.539649,378.14642 41.247849,381.56683 C 42.465749,384.00539 43.719949,385.99525 44.034949,385.98873 C 44.349949,385.98222 46.339149,383.48293 48.455349,380.43477 z M 691.79825,374.33253 C 691.36275,370.07879 691.60865,368.85718 693.18845,367.42754 C 695.67895,365.17367 695.62495,360.93481 693.04135,355.87049 C 691.40175,352.65668 691.17835,351.23665 691.95965,348.99534 C 692.50125,347.44174 692.79905,346.01985 692.62135,345.83559 C 692.44365,345.65134 692.01915,343.72682 691.67795,341.55889 C 691.33685,339.39097 690.83705,337.3966 690.56745,337.12696 C 690.29775,336.85733 688.17155,338.5769 685.84245,340.94824 C 679.94775,346.94976 672.70775,352.25974 665.35775,355.97215 C 661.92025,357.70838 659.10775,359.31187 659.10775,359.53546 C 659.10775,359.75905 661.56125,361.10269 664.55995,362.52133 C 670.61755,365.387 683.77765,377.11248 687.25955,382.74623 L 689.50835,386.38492 L 690.91785,382.94275 C 691.81775,380.74499 692.13605,377.63222 691.79825,374.33253 z M 119.00095,367.00058 C 119.40225,367.00058 120.75145,366.04954 121.99905,364.88715 C 127.56445,359.70223 118.92395,350.58345 112.86795,355.25058 C 111.18585,356.54696 110.78775,357.92426 110.98925,361.75058 C 111.14095,364.63202 114.80725,368.32986 116.76685,367.5779 C 117.59425,367.26037 118.59965,367.00058 119.00095,367.00058 z M 615.47285,364.928 C 618.56355,362.49687 618.75615,360.35763 616.16415,357.25058 C 613.53085,354.09409 608.66755,354.21649 606.52055,357.49329 C 604.63935,360.36438 605.32245,365.00058 607.62675,365.00058 C 608.44125,365.00058 609.10775,365.45058 609.10775,366.00058 C 609.10775,367.70822 612.71005,367.10119 615.47285,364.928 z M 96.371349,352.95964 C 99.468349,352.38713 104.16355,350.72062 106.80495,349.2563 C 114.11635,345.20321 122.71125,336.08311 126.08115,328.80219 C 130.90895,318.37131 132.19755,301.28466 129.08285,289.00058 C 128.59475,287.07558 127.95975,284.15058 127.67175,282.50058 C 126.13035,273.66823 123.26705,265.61354 114.16365,244.50058 C 113.68935,243.40058 111.93355,238.45058 110.26195,233.50058 C 103.29325,212.86584 102.94695,209.51009 106.10685,193.23495 C 108.80275,179.34976 112.82305,173.06779 122.60775,167.45144 C 126.86535,165.00758 128.72135,164.57544 135.10775,164.54101 C 140.77835,164.51044 143.26615,164.94741 145.30715,166.33249 C 147.81015,168.03106 150.36565,173.19083 150.69175,177.20455 C 150.88955,179.63883 146.09035,184.7047 142.91805,185.41022 C 139.08195,186.26337 134.76315,182.41422 134.88165,178.24767 C 135.02875,173.07359 130.74955,172.89585 124.29875,177.80812 C 119.80045,181.23361 118.10775,184.90569 118.10775,191.23869 C 118.10775,201.38755 125.22505,206.02405 137.60775,203.94177 C 145.67145,202.58577 147.85325,201.46804 152.94285,196.08534 C 157.20215,191.58087 157.26655,191.55312 156.62365,194.50058 C 156.26385,196.15058 154.53795,199.00251 152.78855,200.83821 C 147.45135,206.43848 143.06725,208.0726 130.97975,208.96709 C 124.50045,209.44657 119.43655,210.31271 118.48225,211.10472 C 117.59985,211.83706 115.42345,215.48085 113.64585,219.20204 L 110.41375,225.96783 L 115.55325,229.50752 C 121.65785,233.71194 127.05495,235.38848 131.42315,234.43728 C 140.19775,232.52657 153.33875,222.23315 159.70135,212.28677 C 161.57485,209.35801 163.10775,206.52048 163.10775,205.98116 C 163.10775,205.44184 163.55775,205.00058 164.10775,205.00058 C 164.65775,205.00058 165.10775,203.84902 165.10775,202.44156 C 165.10775,201.0341 165.52045,200.13764 166.02495,200.44942 C 167.36705,201.27888 165.41555,207.48545 161.79625,213.89853 C 157.30615,221.8544 146.92115,232.46823 140.76265,235.39555 C 133.73955,238.73382 129.14055,243.40883 128.98365,247.36924 C 128.48745,259.89167 129.62565,264.02118 135.17405,269.82776 C 138.68115,273.49805 139.12135,273.3213 140.96935,267.50058 C 142.48745,262.71918 148.99585,249.33295 151.10775,246.64845 C 151.93275,245.59976 153.67555,243.56247 154.98065,242.12116 C 157.66065,239.16157 170.06525,220.3522 170.87465,218.02063 C 171.16495,217.1846 172.31575,214.47558 173.43195,212.00058 C 176.39205,205.43713 176.26585,189.96597 173.17895,181.00058 C 168.41325,167.15897 162.60315,159.92155 152.60775,155.37577 C 147.28575,152.95543 145.36455,152.63878 135.60775,152.57382 C 120.07825,152.47042 112.73115,155.46805 101.85365,166.34556 C 92.654449,175.54471 86.952549,193.94244 87.703849,212.00058 C 88.090649,221.29745 90.444949,233.50315 92.676449,237.78064 C 93.456849,239.27661 94.098149,240.96304 94.101549,241.52826 C 94.104949,242.09348 96.836849,248.61848 100.17255,256.02826 C 112.23545,282.82469 116.70035,299.13454 115.10465,310.57396 C 113.13415,324.69946 107.24745,333.01518 96.912049,336.27311 C 83.900749,340.37459 75.107749,336.8077 75.107749,327.42814 C 75.107749,323.83003 75.592849,322.86794 78.540949,320.61927 C 83.714349,316.67338 88.237649,317.37709 92.846149,322.84478 C 95.446749,325.93015 96.821649,325.45233 101.26225,319.92 C 106.80285,313.01727 105.09095,299.58481 98.372349,297.24267 C 92.415149,295.166 81.496449,299.55618 73.357749,307.30043 C 68.714549,311.71858 68.990349,308.24308 73.696349,303.03415 C 77.620949,298.69008 85.302849,294.63614 94.557149,292.0254 C 101.94705,289.94061 103.75045,287.59844 104.42155,279.21369 C 104.89925,273.24562 104.78995,272.8421 102.26625,271.25656 C 100.80405,270.33793 98.402349,268.61064 96.929149,267.41815 C 93.206949,264.40516 87.851849,263.54999 84.385549,265.41503 C 77.615549,269.05761 65.238249,283.11831 61.734649,291.14652 C 59.544649,296.16452 59.679349,291.58952 61.886149,286.00058 C 65.355149,277.21458 68.340549,272.71067 76.034449,264.65534 C 80.318349,260.17022 84.337349,255.51766 84.965549,254.31632 C 86.458849,251.46057 86.355349,238.25497 84.812649,234.80999 C 83.356549,231.55846 76.540449,226.00058 74.008949,226.00058 C 72.702949,226.00058 71.774549,227.34903 70.738649,230.75058 C 69.943049,233.36308 68.642049,237.07558 67.847549,239.00058 C 65.521449,244.63653 64.788849,246.46877 64.648849,247.00058 C 64.576549,247.27558 63.517949,249.30058 62.296449,251.50058 C 52.005049,270.03611 49.835249,274.48264 47.657649,281.50058 C 44.249349,292.48458 42.386649,310.03975 43.819949,317.66995 C 46.491849,331.89408 55.288649,343.90319 66.877749,349.14785 C 77.041449,353.74744 85.909649,354.89359 96.371349,352.95964 z M 657.54665,351.40427 C 660.81305,350.60175 665.33845,348.77297 667.60295,347.34031 C 675.97975,342.04077 685.38515,325.40644 686.42005,314.06043 C 687.07345,306.89697 685.54815,291.23314 683.78495,287.00058 C 683.44125,286.17558 682.70035,283.38097 682.13855,280.79034 C 681.16815,276.31558 678.71315,270.50117 675.47175,265.00058 C 674.66155,263.62558 673.35495,261.06885 672.56835,259.31896 C 671.78165,257.56907 670.69405,255.86293 670.15135,255.52754 C 667.19375,253.69965 662.10775,235.92241 662.10775,227.41261 C 662.10775,223.57376 660.73905,223.10012 656.30805,225.40557 C 646.56935,230.47263 641.83485,246.05999 646.99865,256.0551 C 649.61585,261.12098 655.87405,269.8437 660.59115,275.00058 C 664.51235,279.28729 669.87635,288.0935 671.67975,293.20479 C 673.37165,298.00001 672.88395,298.01331 670.00065,293.25058 C 667.04275,288.36454 660.26305,279.54245 655.59135,274.50058 C 648.11895,266.43604 644.08145,265.29538 637.89285,269.50058 C 635.86935,270.87558 633.77575,272.00058 633.24035,272.00058 C 631.78255,272.00058 630.66745,284.73896 631.89035,287.42296 C 632.89375,289.62509 633.88075,290.02306 645.60775,292.95393 C 652.39495,294.65026 663.08485,304.70228 663.10115,309.40359 C 663.10805,311.40412 662.34835,310.76298 657.25285,304.46829 C 653.22685,299.49482 642.63945,295.30304 636.84795,296.38954 C 631.35015,297.42092 624.30555,302.62452 623.25475,306.43034 C 621.34425,313.34929 624.25235,320.62762 630.78565,325.27907 C 636.19855,329.13282 640.10775,328.56867 640.10775,323.93378 C 640.10775,320.17646 644.29715,316.00058 648.06665,316.00058 C 652.70605,316.00058 658.92005,324.62781 657.72115,329.40447 C 656.77625,333.16958 650.83335,338.64187 646.88505,339.38257 C 636.41905,341.34601 622.50905,333.76956 617.62485,323.44518 C 615.28335,318.49567 614.97145,316.63522 615.02245,307.91946 C 615.05435,302.47316 615.49275,297.22588 615.99665,296.25884 C 616.50055,295.2918 617.48405,292.47558 618.18225,290.00058 C 618.88045,287.52558 622.10265,279.91772 625.34255,273.09422 C 640.43755,241.30369 644.11065,229.50448 644.72775,210.82324 C 644.96095,203.7616 644.67915,198.03018 644.01465,196.32324 C 643.41035,194.77078 642.29745,191.16773 641.54165,188.31647 C 639.33515,179.99271 634.10945,169.94973 629.67995,165.52024 C 617.97335,153.8136 599.42175,149.22931 586.63805,154.88415 C 577.81535,158.78682 566.12175,169.54975 561.87015,177.68062 C 557.93435,185.20767 554.44265,208.8535 557.03075,210.45303 C 557.53845,210.7668 558.26495,212.44017 558.64525,214.17163 C 559.31835,217.23595 562.34005,222.27981 569.62615,232.50058 C 571.58655,235.25058 575.65765,241.55058 578.67305,246.50058 C 581.68845,251.45058 584.58365,256.17558 585.10685,257.00058 C 586.09495,258.55876 588.88155,264.77669 591.49295,271.25058 C 592.32495,273.31308 593.66905,275.00058 594.47995,275.00058 C 599.15165,275.00058 608.28055,261.18551 608.47355,253.82366 C 608.59865,249.05291 605.68455,245.89131 597.66655,242.09892 C 589.53525,238.25296 582.34715,232.66347 576.92145,225.96755 C 565.64625,212.05242 567.29175,211.36407 580.42825,224.50058 C 585.65325,229.72558 590.46165,234.00058 591.11355,234.00058 C 591.76555,234.00058 593.53845,234.88314 595.05325,235.96183 C 596.56815,237.04051 599.77375,238.36484 602.17675,238.90476 C 607.37195,240.07204 610.33085,238.90783 616.96335,233.08678 C 620.76445,229.75077 621.17825,229.00095 620.21335,227.19804 C 619.60525,226.06175 619.10775,222.45758 619.10775,219.18877 C 619.10775,215.1636 618.63045,212.84937 617.62885,212.01815 C 616.72185,211.26535 612.11405,210.68796 605.71115,210.52475 C 594.96985,210.25095 589.89915,208.73339 584.48165,204.17118 C 582.38295,202.40375 578.55205,196.00058 579.59335,196.00058 C 579.88865,196.00058 582.71275,197.73171 585.86905,199.84755 C 597.32895,207.52981 605.73455,208.68365 611.47345,203.36228 C 615.96515,199.19735 618.88165,189.21497 616.10775,187.50058 C 615.55775,187.16066 615.10775,185.83751 615.10775,184.56025 C 615.10775,181.71527 609.30015,177.00058 605.79575,177.00058 C 604.01305,177.00058 603.00835,177.82634 602.08815,180.04774 C 600.83555,183.07188 596.66815,186.00058 593.61755,186.00058 C 590.97695,186.00058 584.24825,182.13179 583.07455,179.93866 C 580.18935,174.54754 586.36585,166.7888 594.51565,165.56665 C 603.10375,164.27879 614.71085,169.42138 620.00865,176.86143 C 626.45155,185.90971 628.75565,195.62045 628.39865,212.22201 C 628.22715,220.198 627.61595,223.60938 624.99445,231.22201 C 623.23715,236.32523 621.41865,240.65058 620.95345,240.83391 C 620.48835,241.01725 620.10775,241.84182 620.10775,242.6663 C 620.10775,244.08909 617.50025,250.43652 610.93285,265.00058 C 606.55995,274.6983 606.48315,274.90616 604.28365,283.00058 C 599.59025,300.27249 599.06255,310.26292 602.23855,321.71662 C 606.08435,335.58554 611.62915,343.10669 622.87255,349.70511 C 630.11775,353.95711 644.32275,354.65321 657.54665,351.40427 z M 543.27895,191.34559 C 547.20715,187.79062 543.94365,180.00058 538.52615,180.00058 C 533.06185,180.00058 530.23075,186.0223 533.34825,191.01415 C 534.90465,193.50636 540.67845,193.69907 543.27895,191.34559 z M 193.58205,189.05024 C 195.60825,185.13186 195.50615,183.39907 193.10775,181.00058 C 190.10325,177.99616 185.67175,178.39969 183.17575,181.90495 C 180.60715,185.51225 180.60755,186.09498 183.18025,189.36572 C 186.22195,193.23253 191.50205,193.07238 193.58205,189.05024 z M 541.74395,169.36469 C 556.81635,164.3125 564.42065,157.33602 569.67825,143.73646 C 573.16215,134.72512 573.17395,124.87894 569.71195,115.68117 C 568.37605,112.13202 566.45605,108.20641 565.44535,106.95759 C 555.93025,95.200809 549.00335,90.273849 536.54325,86.399989 C 528.85075,84.008399 526.00785,83.632799 516.10775,83.700079 C 503.67395,83.784579 501.70085,84.004359 492.60775,86.317879 C 481.31695,89.190489 476.59775,90.794499 465.60775,95.494839 C 453.42615,100.70477 444.94035,103.82511 441.12185,104.49859 C 439.73905,104.74247 434.17655,105.85398 428.76065,106.96862 C 413.00745,110.21076 403.02715,107.92004 394.12635,99.019169 C 387.99575,92.888579 386.49305,82.957399 390.51835,75.173409 C 392.27195,71.782359 397.28085,70.010399 401.78325,71.188349 C 405.58305,72.182489 407.57125,76.859799 406.65225,82.642489 C 405.98315,86.852559 404.76965,88.655709 402.01735,89.529239 C 397.52955,90.953629 402.07025,95.825519 409.60775,97.673119 C 418.50355,99.853699 425.45825,97.951119 428.35125,92.545469 C 430.90775,87.768689 428.56245,76.990079 423.88095,72.000579 C 421.01755,68.948789 418.10775,64.820239 418.10775,63.809459 C 418.10775,62.530849 421.47865,64.175089 424.43805,66.897169 C 427.49575,69.709679 431.31075,77.092369 433.01775,83.500579 C 433.60385,85.700579 435.10135,88.726509 436.34555,90.224869 C 438.71325,93.076259 440.40415,93.418059 450.76385,93.139319 C 455.75105,93.005129 456.03795,92.836579 459.51385,87.998269 C 461.49045,85.246989 463.10775,82.262609 463.10775,81.366299 C 463.10775,75.337579 446.72945,60.222979 436.02595,56.374049 C 430.87545,54.521989 428.28455,52.490379 429.51005,51.264849 C 430.60685,50.168089 444.17725,55.095339 449.10775,58.380529 C 454.28555,61.830529 464.75355,72.309449 465.55985,74.849739 C 466.39665,77.486279 471.03025,79.699119 477.10775,80.364519 C 481.95375,80.895119 483.35675,80.591229 488.90785,77.808609 C 494.66825,74.921029 501.10775,69.233419 501.10775,67.033169 C 501.10775,65.880469 499.19225,65.321259 490.68395,63.990009 C 484.61395,63.040259 474.54155,59.638089 473.10775,58.053249 C 472.83275,57.749279 471.03275,56.723369 469.10775,55.773439 C 467.18275,54.823509 463.58275,52.834729 461.10775,51.353929 C 454.54105,47.425059 447.04055,43.822969 443.60775,42.949539 C 441.95775,42.529729 437.00775,41.218249 432.60775,40.035119 C 421.77005,37.120959 409.52305,37.124949 401.71805,40.045179 C 395.77685,42.268079 387.10135,48.819399 381.21585,55.527429 C 370.50875,67.730949 369.37095,86.041149 378.36295,101.43761 C 383.16945,109.66743 385.56535,112.04014 393.61435,116.5414 C 408.91695,125.09915 423.82055,124.98373 456.60775,116.05358 C 460.40835,115.0184 462.92285,114.00207 471.60775,109.99074 C 481.76005,105.30158 489.77505,102.38692 499.25285,99.937509 C 510.29685,97.083309 527.37505,97.599629 536.60775,101.06684 C 552.52885,107.04582 561.28805,122.6535 556.91465,137.25073 C 554.57155,145.07124 546.65485,149.48858 539.48325,146.97702 C 536.14305,145.80725 532.10775,140.39943 532.10775,137.09299 C 532.10775,131.59147 537.46615,126.60112 543.44405,126.53538 C 546.13415,126.50579 546.65465,126.09279 546.92165,123.77612 C 547.16355,121.6774 546.16105,119.90287 542.55715,116.04994 C 537.49705,110.64033 533.82315,109.26857 527.54795,110.44581 C 524.51445,111.01491 523.70135,111.78277 522.04795,115.64001 C 519.46635,121.66266 519.60165,126.19507 522.64115,135.50619 C 524.03445,139.77468 524.92985,143.51177 524.63075,143.81083 C 523.62555,144.81602 521.19825,140.54969 519.04915,134.00058 C 517.25985,128.54817 517.02455,126.19522 517.58915,119.40117 L 518.26215,111.30175 L 514.78385,109.65117 C 512.87075,108.74334 509.78605,108.00058 507.92905,108.00058 C 506.07205,108.00058 503.61505,107.34381 502.46905,106.5411 C 500.52515,105.17953 500.00705,105.43368 494.74655,110.32943 C 490.04435,114.70554 489.10775,116.13806 489.10775,118.95359 C 489.10775,122.69031 495.34685,134.97396 500.55985,141.50058 C 504.49325,146.4251 505.55665,149.00058 503.65655,149.00058 C 502.33895,149.00058 493.94255,138.29754 491.11395,133.01228 C 490.38675,131.65355 489.30045,130.0252 488.69975,129.39374 C 488.09915,128.76229 486.93275,127.24037 486.10775,126.0117 C 485.28275,124.78304 482.84145,122.64754 480.68275,121.26616 C 477.28745,119.0935 475.97155,118.82583 470.93235,119.28277 C 463.82055,119.92764 457.13985,123.58779 453.62005,128.76766 C 452.23825,130.80111 451.10775,132.95596 451.10775,133.55621 C 451.10775,134.15646 453.86125,135.15965 457.22675,135.78552 C 465.24755,137.27716 474.15555,141.58543 481.70415,147.62381 C 494.14155,157.5729 502.98305,164.22485 505.75545,165.71891 C 518.72905,172.71038 528.73775,173.72429 541.74395,169.36469 z M 218.60775,165.49347 C 227.55095,162.4108 237.34175,157.23561 251.60775,148.05048 C 272.05435,134.8859 271.34435,135.20852 282.35775,134.0776 C 285.78565,133.72559 275.46475,122.68425 269.62195,120.45288 C 267.25665,119.54954 262.97385,118.74072 260.10475,118.65551 C 255.04435,118.50521 254.75265,118.65016 250.35555,123.50058 C 247.86255,126.25058 244.78185,130.1475 243.50965,132.1604 C 240.67425,136.64646 230.68635,147.00058 229.19435,147.00058 C 227.25045,147.00058 228.01805,145.61323 234.03445,138.25246 C 237.29285,134.266 241.14395,128.58187 242.59255,125.62106 C 245.83545,118.99289 245.30555,116.24589 239.52375,109.71172 L 235.43985,105.09635 L 230.52375,106.55286 C 221.90555,109.1062 219.37305,110.93768 218.24025,115.43594 C 217.67735,117.67149 217.00985,122.31326 216.75705,125.75097 C 216.09475,134.75548 209.86555,144.95585 202.76475,148.66359 C 198.63865,150.8181 198.12065,149.32379 201.95385,146.3239 C 203.76065,144.90984 206.37655,141.95089 207.76685,139.74844 C 210.38075,135.60782 214.03995,125.78765 214.08315,122.79763 C 214.21035,113.98376 200.60205,109.59063 190.85925,115.30032 C 187.83755,117.07111 185.94685,119.02324 185.21215,121.13073 C 183.71575,125.4234 183.77475,125.69417 186.35775,126.3892 C 187.59525,126.72218 189.69605,127.84262 191.02625,128.87906 C 192.98275,130.40344 193.41265,131.5859 193.27625,135.06767 C 192.84155,146.15949 180.52475,147.50702 174.44235,137.12819 C 167.39955,125.11058 174.64845,107.93957 190.11335,100.00737 C 201.74935,94.039039 219.90095,94.438049 236.10775,101.01843 C 247.43255,105.61662 261.56435,111.00058 262.30885,111.00058 C 262.76025,111.00058 265.26205,111.95294 267.86865,113.11694 C 270.47515,114.28094 274.11255,115.89716 275.95185,116.70854 C 296.57745,125.80728 318.47025,127.88046 331.82435,121.99949 C 345.15615,116.12837 356.50195,104.11238 359.63185,92.549269 C 361.22825,86.651969 361.29425,84.958429 360.20495,77.842699 C 359.52785,73.419719 358.46065,68.608339 357.83335,67.150749 C 355.11575,60.835689 349.99625,54.089069 345.31315,50.651409 C 339.02375,46.034569 326.12695,41.297079 317.60715,40.473949 C 305.18745,39.274059 286.14295,43.954379 266.60775,53.007359 C 261.65775,55.301289 256.93275,57.328729 256.10775,57.512789 C 254.14145,57.951469 245.41515,60.991409 241.60775,62.564089 C 239.95775,63.245629 237.70775,63.963999 236.60775,64.160469 C 233.44515,64.725329 233.63995,68.886889 237.08275,74.307479 C 240.58335,79.818929 244.25125,81.747219 252.86385,82.603779 C 261.48005,83.460719 264.91095,81.543789 277.18635,69.013969 C 287.26565,58.725729 294.49175,53.517709 297.75215,54.191779 C 298.68365,54.384349 297.25805,56.006099 293.96445,58.500579 C 285.78865,64.692839 277.97475,73.619569 273.89535,81.427979 C 272.42685,84.238669 272.49425,84.537659 275.58435,88.927979 C 277.35445,91.442909 279.06335,94.238909 279.38195,95.141309 C 279.86665,96.514439 281.07395,96.701519 286.78435,96.288329 C 296.76805,95.565949 300.25255,93.598899 301.68095,87.878959 C 303.58535,80.252289 308.08805,72.182759 312.47025,68.542649 C 314.72745,66.667739 316.76915,65.328649 317.00735,65.566889 C 317.24555,65.805119 315.82875,68.362669 313.85875,71.250309 C 307.37515,80.754349 305.80455,84.618929 306.37365,89.668099 C 307.41095,98.871009 315.05565,102.7758 325.56425,99.470429 C 335.33705,96.396519 339.53175,88.458699 332.85775,85.668899 C 329.14105,84.115339 327.64085,82.495709 326.81945,79.149929 C 325.73885,74.748629 329.78055,70.000579 334.60775,70.000579 C 343.19875,70.000579 347.03705,83.729509 341.53355,94.773539 C 336.54205,104.79025 324.41495,109.75664 307.60775,108.66721 C 297.13385,107.98831 292.15415,106.46321 267.10775,96.263449 C 241.55595,85.857919 240.44455,85.470869 230.98575,83.683159 C 215.67035,80.788569 207.52655,80.596899 198.22425,82.912089 C 187.70065,85.531269 178.28275,90.138629 172.11235,95.686309 C 169.47315,98.059159 166.81745,100.00058 166.21075,100.00058 C 165.60405,100.00058 165.10775,100.84548 165.10775,101.87814 C 165.10775,102.91079 164.49405,104.26499 163.74395,104.88747 C 162.99395,105.50995 161.33665,109.68443 160.06115,114.16411 C 157.89985,121.75455 157.82075,122.93264 158.89925,131.47132 C 160.00995,140.26543 161.86915,146.43468 164.41385,149.77 C 167.89035,154.32655 175.11065,160.77656 178.61835,162.45914 C 190.05145,167.94339 207.63045,169.27725 218.60775,165.49347 z M 582.98075,149.79369 C 589.74735,147.40069 598.99445,146.31825 606.10775,147.08654 C 609.13275,147.41326 611.75305,147.56975 611.93065,147.43429 C 612.44775,147.03995 603.79985,138.60657 601.67785,137.43583 C 600.45345,136.76032 599.66155,135.12234 599.51145,132.95517 C 599.21455,128.66577 594.37085,124.00058 590.21435,124.00058 C 588.64035,124.00058 586.77085,123.29964 586.05985,122.44294 C 584.41075,120.45592 576.17335,115.60161 575.53455,116.2404 C 575.26905,116.50594 575.51435,117.93991 576.07975,119.42699 C 577.70225,123.69462 577.37225,143.43171 575.60775,147.65482 C 573.65245,152.33447 573.70735,153.38852 575.85775,152.4542 C 576.82025,152.03601 580.02555,150.83878 582.98075,149.79369 z M 155.94735,146.37095 C 153.63805,141.15043 151.84655,125.16131 152.75485,117.87871 C 153.61945,110.94695 151.82295,110.79383 145.69245,117.27676 C 141.25025,121.97434 140.06675,122.71541 137.72275,122.26732 C 135.46325,121.83539 134.26545,122.47423 131.03885,125.8322 C 127.85295,129.14776 127.10775,130.65326 127.10775,133.77388 C 127.10775,136.88801 126.53705,138.04633 124.12425,139.83025 C 121.16335,142.01935 117.73985,147.29935 118.67495,148.23451 C 118.94305,148.50264 121.06265,148.35429 123.38505,147.90485 C 131.21045,146.39047 145.19735,146.93016 150.60775,148.95523 C 158.01555,151.72796 158.26385,151.60781 155.94735,146.37095 z M 368.76805,118.06609 C 371.70975,116.27234 371.87145,115.88702 371.10635,112.49468 C 370.30205,108.9284 367.80285,106.09578 365.40475,106.03238 C 361.08905,105.91828 355.41385,112.23903 356.56775,115.87464 C 357.07065,117.45914 361.28895,119.56835 364.60775,119.89475 C 365.15775,119.94885 367.02985,119.12595 368.76805,118.06609 z M 369.01515,64.000579 C 370.67265,58.007509 376.21105,49.714059 382.96005,43.118659 C 387.86565,38.324769 388.28475,37.603219 386.79605,36.514639 C 385.75895,35.756309 383.21355,35.476169 380.08845,35.776449 C 376.24225,36.146029 374.60455,35.855229 373.15755,34.545729 C 372.11555,33.602679 369.41015,32.582579 367.14555,32.278839 C 363.80695,31.831029 362.58605,32.142039 360.69005,33.923239 C 359.08495,35.431119 356.56115,36.304699 352.64115,36.709279 C 349.42335,37.041389 346.71735,37.854289 346.44215,38.571479 C 345.75225,40.369219 347.89315,44.000579 349.64285,44.000579 C 350.44855,44.000579 351.10775,44.418539 351.10775,44.929379 C 351.10775,45.440219 352.72325,47.571109 354.69775,49.664699 C 358.72385,53.933629 364.75585,63.750479 365.72465,67.610639 C 366.51755,70.769659 367.41545,69.784559 369.01515,64.000579 z"
       id="path2453" />
  </g>
</svg>
